<svg xmlns="http://www.w3.org/2000/svg" viewBox="0 0 512 512" style="height: 512px; width: 512px;"><path d="M 36.040644 23.230587 L 36.040644 30.979609 C 36.040644 116.05952 44.740253 200.91917 70.120228 269.7491 C 91.067101 326.53419 123.94776 372.70561 172.66843 397.5512 C 198.64296 443.25 235.6381 477.36899 286.81087 491.42936 L 289.06306 493.18534 C 364.57435 475.60824 407.88383 422.1318 431.66009 352.69037 C 455.46006 283.15044 460.8709 197.08988 460.8709 111.97996 L 460.8709 104.22911 L 378.17682 104.22911 C 379.38067 80.004265 379.87054 55.461569 379.87054 30.979609 L 379.87054 23.230587 L 36.040644 23.230587 z M 289.06306 493.18534 C 288.95595 493.21028 288.85719 493.24479 288.74995 493.26957 L 289.16926 493.26957 L 289.06306 493.18534 z M 51.630241 38.719476 L 364.31024 38.719476 C 364.21726 60.685434 363.68968 82.618131 362.59455 104.22911 L 117.03917 104.22911 L 117.03917 111.97996 C 117.03917 197.05988 125.74061 281.91952 151.12058 350.74945 C 153.75973 357.90394 156.63415 364.84594 159.65879 371.64362 C 125.74448 347.50899 101.58353 310.31362 84.640489 264.38961 C 61.050513 200.40967 52.15024 120.09939 51.630241 38.719476 z M 132.63059 119.71983 L 361.70831 119.71983 C 361.36953 124.91777 361.01727 130.10722 360.5987 135.25083 L 280.9991 135.25083 L 200.54989 135.25083 L 148.22019 135.25083 C 148.88019 204.97076 158.55918 278.45975 180.78915 338.10969 C 187.27915 355.50967 194.77973 371.66981 203.36972 386.2298 L 208.82077 394.77349 C 208.58057 394.82826 208.35125 394.89535 208.11032 394.94928 C 199.55072 392.49361 191.47697 389.37138 183.77377 385.74457 C 176.98945 373.21234 170.94074 359.7553 165.64084 345.38996 C 142.05087 281.41002 133.15059 201.09975 132.63059 119.71983 z M 377.29608 119.71983 L 445.3106 119.71983 C 444.9706 201.57975 439.08994 283.25081 417.02996 347.70075 C 394.48998 413.56068 356.2206 460.90964 289.11067 475.94963 C 249.95006 464.71481 220.0169 440.79112 197.19906 407.7282 C 200.04324 408.66549 202.8737 409.62391 205.81051 410.43084 L 208.06637 412.18865 C 211.81517 411.31608 215.46316 410.33164 219.05453 409.2846 C 238.26509 433.88275 261.77566 451.68722 290.20015 459.97917 C 315.34012 454.24918 336.07942 442.15954 353.1994 425.11956 L 366.87921 409.50067 C 381.6292 390.28068 393.16927 366.75044 402.18927 340.16047 C 404.32926 333.87047 406.30935 327.41086 408.14935 320.82087 L 412.19048 305.17085 C 420.68048 269.68088 425.67981 230.9201 427.99981 191.92013 L 428.66082 175.31064 C 428.89082 161.10065 429.5293 148.49082 429.6093 135.25083 L 376.20294 135.25083 C 376.61575 130.10017 376.96318 124.91439 377.29608 119.71983 z M 208.06637 412.18865 C 207.95902 412.21364 207.85709 412.24438 207.7496 412.26922 L 208.17074 412.26922 L 208.06637 412.18865 z M 272.98091 189.8895 L 309.3896 189.8895 L 309.3896 252.87044 L 369.75946 252.87044 L 369.75946 285.1794 L 309.3896 285.1794 L 309.3896 348.16034 L 272.98091 348.16034 L 272.98091 285.1794 L 212.60006 285.1794 L 212.60006 252.87044 L 272.98091 252.87044 L 272.98091 189.8895 z" fill="#ffffff" fill-opacity="1"></path></svg>
