<svg xmlns="http://www.w3.org/2000/svg" viewBox="0 0 512 512" style="height: 512px; width: 512px;"><path d="M 491.59375,14.4375 C 432.05587,126.72728 349.08427,216.78843 259.31445,307.15625 l -3.62695,3.75 -0.0625,-0.0625 c -21.82696,21.92996 -44.03934,43.92304 -66.4043,66.25 18.85596,14.81298 38.97354,28.20052 59.9375,40.3125 l -28.5332,28.5293 -68.7168,-68.7168 C 109.5713,404.85469 75.62241,440.86538 47.81445,483.0293 L 19.75,454.96875 c 42.46992,-27.49294 79.74131,-60.20508 106.03125,-103.875 L 56.8457,282.1543 85.375,253.625 c 11.11498,21.85296 24.41374,42.01579 39.4707,60.59375 43.85192,-43.79992 86.4621,-85.84278 130.125,-125.4707 0.224,-0.203 0.4303,-0.422 0.6543,-0.625 C 327.71886,122.75017 402.82893,63.910402 491.59375,14.4375 Z m -142.3457,125.90625 -200.5586,200.5293 c 4.36,4.44298 8.8393,8.7942 13.4043,13.0332 l 200.375,-200.37695 z" fill="#ffffff" fill-opacity="1"></path></svg>
