<svg xmlns="http://www.w3.org/2000/svg" viewBox="0 0 512 512" style="height: 512px; width: 512px;"><path d="M 278.03,242.00 C 278.03,242.00 278.03,318.00 278.03,318.00 278.03,318.00 234.09,318.00 234.09,318.00 234.09,318.00 234.09,242.00 234.09,242.00 234.09,242.00 161.23,242.00 161.23,242.00 161.23,242.00 161.23,203.00 161.23,203.00 161.23,203.00 234.09,203.00 234.09,203.00 234.09,203.00 234.09,127.00 234.09,127.00 234.09,127.00 278.03,127.00 278.03,127.00 278.03,127.00 278.03,203.00 278.03,203.00 278.03,203.00 350.89,203.00 350.89,203.00 350.89,203.00 350.89,242.00 350.89,242.00 350.89,242.00 278.03,242.00 278.03,242.00 Z M 45.91,23.62 C 45.91,23.62 45.91,32.97 45.91,32.97 45.91,135.65 56.40,238.06 87.03,321.12 117.67,404.19 169.40,468.54 250.78,490.90 250.78,490.90 253.63,493.12 253.63,493.12 253.63,493.12 253.13,493.12 253.13,493.12 344.49,472.00 396.86,407.39 425.59,323.47 454.32,239.55 460.84,135.69 460.84,32.97 460.84,32.97 460.84,23.62 460.84,23.62 460.84,23.62 45.91,23.62 45.91,23.62 45.91,23.62 45.91,23.62 45.91,23.62 Z M 64.72,42.31 C 64.72,42.31 442.06,42.31 442.06,42.31 441.65,141.11 434.56,239.66 407.94,317.44 380.73,396.93 334.55,454.07 253.56,472.22 180.28,451.19 133.65,393.52 104.56,314.66 76.09,237.44 65.35,140.53 64.72,42.31 64.72,42.31 64.72,42.31 64.72,42.31 Z M 421.97,109.40 C 422.25,92.25 423.02,77.04 423.12,61.06 423.12,61.06 243.78,61.06 243.78,61.06 243.78,61.06 243.78,61.06 243.78,61.06 243.78,61.06 146.69,61.06 146.69,61.06 146.69,61.06 83.53,61.06 83.53,61.06 83.53,61.06 83.53,61.06 83.53,61.06 84.33,145.19 96.01,233.88 122.84,305.87 130.67,326.87 139.72,346.37 150.09,363.94 150.09,363.94 160.22,379.81 160.22,379.81 184.89,415.72 216.11,441.64 254.88,452.94 285.22,446.03 310.24,431.44 330.91,410.88 330.91,410.88 347.41,392.03 347.41,392.03 365.22,368.83 379.14,340.43 390.03,308.35 392.61,300.75 395.00,292.96 397.22,285.00 397.22,285.00 402.09,266.12 402.09,266.12 412.34,223.29 418.37,176.51 421.18,129.45 421.18,129.45 421.97,109.40 421.97,109.40 Z" fill="#dcdcdc" fill-opacity="1"></path></svg>