<?xml version="1.0" encoding="utf-8"?><!-- Uploaded to: SVG Repo, www.svgrepo.com, Generator: SVG Repo Mixer Tools -->
<svg width="800px" height="800px" viewBox="0 0 16 16" fill="#ffffff" xmlns="http://www.w3.org/2000/svg">
    <rect x="3.5" y="6" height="1.5" width="1.5" fill="#ffffff"/>
    <rect x="6" y="6" height="1.5" width="1.5" fill="#ffffff"/>
    <rect x="8.5" y="6" height="1.5" width="1.5" fill="#ffffff"/>
    <path d="m 12.07006,10.025592 3.855088,3.910397 -1.940643,1.989159 -3.954062,-3.857999 A 6.2731302,6.2731302 0 0 1 6.7070914,13.014183 C 3.2236363,13.014183 0.4,10.183754 0.4,6.7070914 0.4,3.2236363 3.2304286,0.4 6.7070914,0.4 10.190547,0.4 13.014183,3.2304286 13.014183,6.7070914 A 6.2711895,6.2711895 0 0 1 12.07006,10.025592 Z M 2.3377326,6.660516 c 0,2.406398 1.954228,4.366448 4.3664479,4.366448 2.406398,0 4.3664475,-1.9551984 4.3664475,-4.366448 0,-2.406398 -1.9551979,-4.3664479 -4.3664475,-4.3664479 -2.406398,0 -4.3664479,1.954228 -4.3664479,4.3664479 z" fill-rule="evenodd"/>
</svg>