<?xml version="1.0" encoding="UTF-8" standalone="no"?>
<!-- Uploaded to: SVG Repo, www.svgrepo.com, Generator: SVG Repo Mixer Tools -->

<svg fill="#dcdcdc" width="800px" height="800px" viewBox="0 0 24 24" xmlns="http://www.w3.org/2000/svg">
   <path d="m 2.5077601,14.06807 -1.1865,0.686983 a 1.1865,1.1865 0 0 0 -0.43425898,1.620759 l 1.76551198,3.058797 a 1.1865,1.1865 0 0 0 1.620759,0.434259 l 1.200738,-0.690543 a 2.3575755,2.3575755 0 0 1 2.356389,0 l 0.02373,0.01305 a 2.3599485,2.3599485 0 0 1 1.1865,2.045526 V 22.6785 a 1.1865,1.1865 0 0 0 1.1864999,1.1865 h 3.5595 a 1.1865,1.1865 0 0 0 1.1865,-1.1865 v -1.445157 a 2.3552025,2.3552025 0 0 1 1.180568,-2.041966 l 0.02492,-0.01424 a 2.3575755,2.3575755 0 0 1 2.356389,0 l 1.195992,0.690543 a 1.1865,1.1865 0 0 0 1.620759,-0.434259 l 1.765512,-3.058797 A 1.1865,1.1865 0 0 0 22.67826,14.755053 l -1.1865,-0.686983 a 2.365881,2.365881 0 0 1 -1.1865,-2.056205 v -0.02492 a 2.3623215,2.3623215 0 0 1 1.1865,-2.0550185 L 22.67826,9.244947 A 1.1865,1.1865 0 0 0 23.112519,7.624188 L 21.344634,4.565391 A 1.1865,1.1865 0 0 0 19.723875,4.131132 L 18.52551,4.821675 a 2.3575755,2.3575755 0 0 1 -2.356389,0 L 16.15251,4.80981 A 2.3599485,2.3599485 0 0 1 14.96601,2.764284 V 1.3215 A 1.1865,1.1865 0 0 0 13.77951,0.135 h -3.5595 A 1.1865,1.1865 0 0 0 9.0335101,1.3215 V 2.856831 A 2.202144,2.202144 0 0 1 7.9300651,4.76235 L 7.7485306,4.866762 a 2.2009575,2.2009575 0 0 1 -2.1985845,0 L 4.2756451,4.131132 A 1.1865,1.1865 0 0 0 2.6548861,4.565391 L 0.88937412,7.624188 A 1.1865,1.1865 0 0 0 1.3212601,9.244947 l 1.1865,0.6869835 a 2.365881,2.365881 0 0 1 1.1865,2.0562045 v 0.02492 a 2.3623215,2.3623215 0 0 1 -1.1865,2.055018 z M 11.99976,8.4405 A 3.5595,3.5595 0 1 1 8.4402601,12 3.5595,3.5595 0 0 1 11.99976,8.4405 Z" />
</svg>
