<svg xmlns="http://www.w3.org/2000/svg" viewBox="0 0 512 512" style="height: 512px; width: 512px;"><path d="M 36.040644 23.230587 L 36.040644 30.979609 C 36.040644 116.05952 44.740253 200.91917 70.120228 269.7491 C 87.494751 316.84987 113.06273 356.67267 149.07712 383.0694 C 160.83528 398.65047 174.26185 412.32574 189.63864 423.50091 C 214.05068 456.06704 245.88001 480.18309 286.81087 491.42936 L 289.06306 493.18534 C 364.57435 475.60824 407.88383 422.1318 431.66009 352.69037 C 455.46006 283.15044 460.8709 197.08988 460.8709 111.97996 L 460.8709 104.22911 L 419.48724 104.22911 C 419.69908 93.152633 419.86993 82.063261 419.86993 70.980823 L 419.86993 63.22997 L 379.49884 63.22997 C 379.69733 52.485157 379.87054 41.728939 379.87054 30.979609 L 379.87054 23.230587 L 36.040644 23.230587 z M 289.06306 493.18534 C 288.95595 493.21028 288.85719 493.24479 288.74995 493.26957 L 289.16926 493.26957 L 289.06306 493.18534 z M 51.630241 38.719476 L 364.31024 38.719476 C 364.27559 46.906528 364.07071 55.063478 363.91474 63.22997 L 76.040027 63.22997 L 76.040027 70.980823 C 76.040027 156.06074 84.739636 240.92038 110.11961 309.75032 C 112.65767 316.63075 115.42111 323.30774 118.31541 329.85895 C 104.77864 310.9596 93.687044 288.91023 84.640489 264.38961 C 61.050513 200.40967 52.15024 120.09939 51.630241 38.719476 z M 91.629624 78.72069 L 363.64374 78.72069 C 363.38772 87.268931 363.02341 95.766093 362.59455 104.22911 L 117.03917 104.22911 L 117.03917 111.97996 C 117.03917 197.05988 125.74061 281.91952 151.12058 350.74945 C 153.7547 357.89033 156.62234 364.8197 159.64048 371.60516 C 145.51447 352.31349 133.97311 329.68851 124.63987 304.39082 C 101.0499 240.41088 92.149623 160.10061 91.629624 78.72069 z M 379.1839 78.72069 L 404.30963 78.72069 C 404.27356 87.24147 404.06742 95.731352 403.89947 104.22911 L 378.17682 104.22911 C 378.59777 95.758457 378.93485 87.255906 379.1839 78.72069 z M 132.63059 119.71983 L 361.70831 119.71983 C 361.36953 124.91777 361.01727 130.10722 360.5987 135.25083 L 280.9991 135.25083 L 200.54989 135.25083 L 148.22019 135.25083 C 148.88019 204.97076 158.55918 278.45975 180.78915 338.10969 C 187.27915 355.50967 194.77973 371.66981 203.36972 386.2298 L 208.82077 394.77349 C 208.58057 394.82826 208.35125 394.89535 208.11032 394.94928 C 199.55072 392.49361 191.47697 389.37138 183.77377 385.74457 C 176.98945 373.21234 170.94074 359.7553 165.64084 345.38996 C 142.05087 281.41002 133.15059 201.09975 132.63059 119.71983 z M 377.29608 119.71983 L 403.60833 119.71983 C 403.44901 124.91044 403.26054 130.08937 403.03887 135.25083 L 376.20294 135.25083 C 376.61575 130.10017 376.96318 124.91439 377.29608 119.71983 z M 419.15215 119.71983 L 445.3106 119.71983 C 444.9706 201.57975 439.08994 283.25081 417.02996 347.70075 C 394.48998 413.56068 356.2206 460.90964 289.11067 475.94963 C 267.28487 469.68801 248.35367 459.44588 231.8829 445.93132 C 236.41473 447.58564 241.03405 449.118 245.8099 450.43022 L 248.06576 452.18987 C 253.13546 451.00988 258.02477 449.62974 262.80757 448.13225 C 271.40403 453.0776 280.48254 457.14437 290.20015 459.97917 C 315.34012 454.24918 336.07942 442.15954 353.1994 425.11956 L 366.87921 409.50067 C 381.6292 390.28068 393.16927 366.75044 402.18927 340.16047 C 404.32926 333.87047 406.30935 327.41086 408.14935 320.82087 L 412.19048 305.17085 C 420.68048 269.68088 425.67981 230.9201 427.99981 191.92013 L 428.66082 175.31064 C 428.89082 161.10065 429.5293 148.49082 429.6093 135.25083 L 418.61016 135.25083 C 418.82727 130.08623 418.997 124.90622 419.15215 119.71983 z M 248.06576 452.18987 C 247.95897 452.21472 247.85773 452.24572 247.75081 452.27043 L 248.17013 452.27043 L 248.06576 452.18987 z M 272.98091 189.8895 L 309.3896 189.8895 L 309.3896 252.87044 L 369.75946 252.87044 L 369.75946 285.1794 L 309.3896 285.1794 L 309.3896 348.16034 L 272.98091 348.16034 L 272.98091 285.1794 L 212.60006 285.1794 L 212.60006 252.87044 L 272.98091 252.87044 L 272.98091 189.8895 z M 197.19906 407.7282 C 200.04324 408.66549 202.8737 409.62391 205.81051 410.43084 L 208.06637 412.18865 C 211.81517 411.31608 215.46316 410.33164 219.05453 409.2846 C 225.88022 418.02455 233.2975 425.81863 241.23958 432.7166 C 226.18411 427.68054 212.53498 420.71621 200.18918 412.00555 C 199.17208 410.60597 198.18904 409.16268 197.19906 407.7282 z M 208.06637 412.18865 C 207.95902 412.21364 207.85709 412.24438 207.7496 412.26922 L 208.17074 412.26922 L 208.06637 412.18865 z" fill="#dcdcdc" fill-opacity="1"></path></svg>
